<svg width="14" height="16" viewBox="0 0 14 16" fill="none" xmlns="http://www.w3.org/2000/svg">
<path fill-rule="evenodd" clip-rule="evenodd" d="M2.42344 0.656001C2.53571 0.495503 2.71924 0.399902 2.9151 0.399902H10.5818C10.7776 0.399902 10.9612 0.495503 11.0734 0.656001L12.9901 3.39619C13.0606 3.497 13.0984 3.61706 13.0984 3.74009V13.3307C13.0984 13.8403 12.9101 14.3366 12.563 14.7088C12.2146 15.0823 11.7327 15.3008 11.2207 15.3008H2.27622C1.20333 15.3008 0.398438 14.3756 0.398438 13.3307V3.74009C0.398438 3.61706 0.436258 3.497 0.506775 3.39619L2.42344 0.656001ZM3.22763 1.5999L2.15033 3.14009H11.3465L10.2692 1.5999H3.22763ZM11.8984 4.34009H1.59844V13.3307C1.59844 13.793 1.94354 14.1008 2.27622 14.1008H11.2207C11.3864 14.1008 11.5545 14.0306 11.6854 13.8903C11.8176 13.7486 11.8984 13.548 11.8984 13.3307V4.34009ZM4.19288 5.88027C4.52425 5.88027 4.79288 6.1489 4.79288 6.48027C4.79288 7.06087 5.00837 7.60999 5.38018 8.00865C5.75066 8.4059 6.24383 8.62046 6.74844 8.62046C7.25304 8.62046 7.74621 8.4059 8.1167 8.00865C8.4885 7.60999 8.70399 7.06087 8.70399 6.48027C8.70399 6.1489 8.97262 5.88027 9.30399 5.88027C9.63536 5.88027 9.90399 6.1489 9.90399 6.48027C9.90399 7.35316 9.58099 8.198 8.99428 8.8271C8.40624 9.45762 7.59938 9.82046 6.74844 9.82046C5.89749 9.82046 5.09063 9.45762 4.5026 8.8271C3.91588 8.198 3.59288 7.35316 3.59288 6.48027C3.59288 6.1489 3.86151 5.88027 4.19288 5.88027Z" fill="white"/>
</svg>
